<svg width="24" height="25" viewBox="0 0 24 25" fill="none" xmlns="http://www.w3.org/2000/svg">
<path d="M12 1.38086C18.0199 1.38086 22.9004 6.26135 22.9004 12.2812C22.9004 18.3012 18.0199 23.1816 12 23.1816C5.9801 23.1816 1.09961 18.3012 1.09961 12.2812C1.09961 6.26135 5.9801 1.38086 12 1.38086ZM12 3.18164C6.97421 3.18164 2.90039 7.25546 2.90039 12.2812C2.90039 17.307 6.97421 21.3809 12 21.3809C17.0258 21.3809 21.0996 17.307 21.0996 12.2812C21.0996 7.25546 17.0258 3.18164 12 3.18164ZM12 7.38086C12.497 7.38086 12.9004 7.7842 12.9004 8.28125V11.9082L15.1367 14.1445C15.4882 14.496 15.4882 15.0665 15.1367 15.418C14.7852 15.7694 14.2148 15.7694 13.8633 15.418L11.3633 12.918C11.1944 12.7492 11.0996 12.5199 11.0996 12.2812V8.28125C11.0996 7.7842 11.503 7.38086 12 7.38086Z" fill="#12B1A5" stroke="#12B1A5" stroke-width="0.3"/>
</svg>
