<svg width="24" height="25" viewBox="0 0 24 25" fill="none" xmlns="http://www.w3.org/2000/svg">
<path d="M9 9.13086C9.3419 9.13086 9.63319 9.33943 9.83203 9.6377C10.0315 9.93698 10.1504 10.3417 10.1504 10.7812C10.1504 11.2208 10.0315 11.6255 9.83203 11.9248C9.63319 12.2231 9.3419 12.4316 9 12.4316C8.6581 12.4316 8.36681 12.2231 8.16797 11.9248C7.96853 11.6255 7.84961 11.2208 7.84961 10.7812C7.84961 10.3417 7.96854 9.93698 8.16797 9.6377C8.36681 9.33943 8.6581 9.13086 9 9.13086Z" fill="#FFA705" stroke="#FFA705" stroke-width="0.3"/>
<path d="M15 9.13086C15.3419 9.13086 15.6332 9.33943 15.832 9.6377C16.0315 9.93698 16.1504 10.3417 16.1504 10.7812C16.1504 11.2208 16.0315 11.6255 15.832 11.9248C15.6332 12.2231 15.3419 12.4316 15 12.4316C14.6581 12.4316 14.3668 12.2231 14.168 11.9248C13.9685 11.6255 13.8496 11.2208 13.8496 10.7812C13.8496 10.3417 13.9685 9.93698 14.168 9.6377C14.3668 9.33943 14.6581 9.13086 15 9.13086Z" fill="#FFA705" stroke="#FFA705" stroke-width="0.3"/>
<path d="M12 1.38086C18.0449 1.38086 22.9004 6.42151 22.9004 12.582V20.0039C22.9004 21.9537 20.8766 23.3161 19.0889 22.3955C18.4564 22.0698 17.7046 22.1173 17.1133 22.5234C15.8352 23.4009 14.1648 23.4009 12.8867 22.5234L12.5342 22.2812C12.2092 22.0581 11.7908 22.0581 11.4658 22.2812L11.1133 22.5234C9.83524 23.4009 8.16479 23.4008 6.88672 22.5234C6.29535 22.1173 5.54351 22.0698 4.91113 22.3955C3.12335 23.3161 1.09961 21.9537 1.09961 20.0039V12.582C1.09961 6.42151 5.95507 1.38086 12 1.38086ZM12 3.18164C6.99905 3.18164 2.90039 7.36501 2.90039 12.582V20.0039C2.90039 20.6935 3.57372 21.0592 4.08691 20.7949C5.31056 20.1648 6.77002 20.2596 7.90527 21.0391C8.56954 21.4952 9.43045 21.4952 10.0947 21.0391L10.4473 20.7969C11.3859 20.1523 12.6141 20.1523 13.5527 20.7969L13.9053 21.0391C14.5695 21.4952 15.4305 21.4952 16.0947 21.0391C17.23 20.2596 18.6894 20.1648 19.9131 20.7949C20.4263 21.0592 21.0996 20.6935 21.0996 20.0039V12.582C21.0996 7.36501 17.001 3.18164 12 3.18164Z" fill="#FFA705" stroke="#FFA705" stroke-width="0.3"/>
</svg>
