<svg width="24" height="25" viewBox="0 0 24 25" fill="none" xmlns="http://www.w3.org/2000/svg">
<path d="M14.5299 9.75117L9.46992 14.8111C8.81992 14.1611 8.41992 13.2711 8.41992 12.2811C8.41992 10.3011 10.0199 8.70117 11.9999 8.70117C12.9899 8.70117 13.8799 9.10117 14.5299 9.75117Z" stroke="#FFA705" stroke-width="2.1" stroke-linecap="round" stroke-linejoin="round"/>
<path d="M17.8199 6.05123C16.0699 4.73123 14.0699 4.01123 11.9999 4.01123C8.46984 4.01123 5.17984 6.09123 2.88984 9.69123C1.98984 11.1013 1.98984 13.4713 2.88984 14.8813C3.67984 16.1213 4.59984 17.1913 5.59984 18.0513" stroke="#FFA705" stroke-width="2.1" stroke-linecap="round" stroke-linejoin="round"/>
<path d="M8.41992 19.8112C9.55992 20.2912 10.7699 20.5512 11.9999 20.5512C15.5299 20.5512 18.8199 18.4712 21.1099 14.8712C22.0099 13.4612 22.0099 11.0912 21.1099 9.68118C20.7799 9.16118 20.4199 8.67118 20.0499 8.21118" stroke="#FFA705" stroke-width="2.1" stroke-linecap="round" stroke-linejoin="round"/>
<path d="M15.5095 12.9812C15.2495 14.3912 14.0995 15.5412 12.6895 15.8012" stroke="#FFA705" stroke-width="2.1" stroke-linecap="round" stroke-linejoin="round"/>
<path d="M9.47 14.8113L2 22.2813" stroke="#FFA705" stroke-width="2.1" stroke-linecap="round" stroke-linejoin="round"/>
<path d="M22.0003 2.28125L14.5303 9.75125" stroke="#FFA705" stroke-width="2.1" stroke-linecap="round" stroke-linejoin="round"/>
</svg>
