<svg width="24" height="25" viewBox="0 0 24 25" fill="none" xmlns="http://www.w3.org/2000/svg">
<path d="M13.0566 1.38086C14.8903 1.38084 16.3574 1.38134 17.5088 1.53613C18.6978 1.69598 19.6839 2.03552 20.4648 2.81641C20.8161 3.16783 20.8161 3.73739 20.4648 4.08887C20.1134 4.44035 19.5439 4.44035 19.1924 4.08887C18.8017 3.69818 18.2587 3.45236 17.2695 3.31934C16.2542 3.18282 14.9111 3.18164 13 3.18164H11C9.08888 3.18164 7.7458 3.18282 6.73047 3.31934C5.74128 3.45236 5.1983 3.69818 4.80762 4.08887C4.41693 4.47955 4.17111 5.02253 4.03809 6.01172C3.90157 7.02705 3.90039 8.37013 3.90039 10.2812V14.2812C3.90039 16.1924 3.90157 17.5354 4.03809 18.5508C4.17111 19.5399 4.41693 20.083 4.80762 20.4736C5.19831 20.8643 5.74129 21.1102 6.73047 21.2432C7.74579 21.3797 9.08888 21.3809 11 21.3809H13C14.9111 21.3809 16.2542 21.3797 17.2695 21.2432C18.2587 21.1102 18.8017 20.8643 19.1924 20.4736C19.5145 20.1515 19.7301 19.7358 19.8701 19.082C20.0111 18.4237 20.0735 17.5331 20.0918 16.2686C20.099 15.7717 20.5071 15.3749 21.0039 15.3818C21.5007 15.389 21.8986 15.7971 21.8916 16.2939C21.8566 18.7115 21.7044 20.5065 20.4648 21.7461C19.6839 22.5269 18.6978 22.8664 17.5088 23.0264C16.3574 23.1811 14.8903 23.1816 13.0566 23.1816H10.9434C9.10977 23.1816 7.6426 23.1811 6.49121 23.0264C5.30221 22.8664 4.31606 22.5269 3.53516 21.7461C2.75427 20.9652 2.41473 19.979 2.25488 18.79C2.10009 17.6387 2.09959 16.1715 2.09961 14.3379V10.2246C2.09959 8.39103 2.10009 6.92386 2.25488 5.77246C2.41473 4.58345 2.75426 3.59731 3.53516 2.81641C4.31606 2.03551 5.3022 1.69598 6.49121 1.53613C7.64261 1.38134 9.10977 1.38084 10.9434 1.38086H13.0566ZM9.5 16.3809C9.99705 16.3809 10.4004 16.7842 10.4004 17.2812C10.4004 17.7783 9.99705 18.1816 9.5 18.1816H8C7.50295 18.1816 7.09961 17.7783 7.09961 17.2812C7.09961 16.7842 7.50295 16.3809 8 16.3809H9.5ZM18.0068 7.2207C19.1262 6.10138 20.9413 6.10137 22.0605 7.2207C23.1799 8.34003 23.1799 10.1551 22.0605 11.2744L17.3047 16.0283L17.3057 16.0293C17.0487 16.2863 16.866 16.4692 16.6611 16.6289C16.4221 16.8153 16.1633 16.975 15.8896 17.1055C15.6552 17.2171 15.4111 17.2983 15.0664 17.4131L12.9824 18.1074C12.4685 18.2787 11.9016 18.1458 11.5186 17.7627C11.1355 17.3796 11.0026 16.8127 11.1738 16.2988L11.8535 14.2568C11.8558 14.25 11.859 14.2433 11.8613 14.2363C11.8636 14.2294 11.8658 14.2219 11.8682 14.2148C11.983 13.8703 12.0642 13.626 12.1758 13.3916C12.3063 13.118 12.4659 12.8592 12.6523 12.6201L12.7773 12.4688C12.908 12.3191 13.0591 12.1683 13.252 11.9756H13.2529V11.9746H13.2539V11.9736H13.2549V11.9727H13.2559V11.9717H13.2568V11.9707H13.2578V11.9697H13.2588V11.9688H13.2598V11.9678H13.2607V11.9668H13.2617V11.9658H13.2627V11.9648H13.2637V11.9639H13.2646V11.9629H13.2656V11.9619H13.2666V11.9609H13.2676V11.96H13.2686V11.959H13.2695V11.958H13.2705V11.957H13.2715V11.9561H13.2725V11.9551H13.2734V11.9541H13.2744V11.9531H13.2754V11.9521H13.2764V11.9512H13.2773V11.9502H13.2783V11.9492H13.2793V11.9482H13.2803V11.9473H13.2812V11.9463H13.2822V11.9453L13.2832 11.9443L18.0068 7.2207ZM14.5557 13.2178C14.2522 13.5214 14.1544 13.6213 14.0723 13.7266C13.9662 13.8627 13.8751 14.0102 13.8008 14.166C13.7433 14.2866 13.6973 14.4186 13.5615 14.8262L13.1904 15.9395L13.3418 16.0908L14.4551 15.7197C14.8627 15.5839 14.9947 15.5379 15.1152 15.4805C15.2711 15.4062 15.4186 15.3151 15.5547 15.209C15.66 15.1269 15.7599 15.0291 16.0635 14.7256L19.3213 11.4668C19.0432 11.3031 18.7511 11.091 18.4707 10.8105C18.1899 10.5297 17.9773 10.2374 17.8135 9.95898L14.5557 13.2178ZM10.5 12.3809C10.997 12.3809 11.4004 12.7842 11.4004 13.2812C11.4004 13.7783 10.997 14.1816 10.5 14.1816H8C7.50295 14.1816 7.09961 13.7783 7.09961 13.2812C7.09961 12.7842 7.50295 12.3809 8 12.3809H10.5ZM14.5 8.38086C14.997 8.38086 15.4004 8.7842 15.4004 9.28125C15.4004 9.7783 14.997 10.1816 14.5 10.1816H8C7.50295 10.1816 7.09961 9.7783 7.09961 9.28125C7.09961 8.7842 7.50295 8.38086 8 8.38086H14.5ZM20.7881 8.49316C20.3718 8.07692 19.6967 8.07718 19.2803 8.49316L19.1621 8.61035C19.1639 8.61573 19.1661 8.62149 19.168 8.62695C19.2562 8.88124 19.424 9.21889 19.7432 9.53809C20.0623 9.85724 20.3999 10.025 20.6543 10.1133C20.6594 10.115 20.6649 10.1165 20.6699 10.1182L20.7881 10.001C21.204 9.58456 21.2043 8.90942 20.7881 8.49316Z" fill="#FFA705" stroke="#FFA705" stroke-width="0.3"/>
</svg>
