<svg width="24" height="25" viewBox="0 0 24 25" fill="none" xmlns="http://www.w3.org/2000/svg">
<path d="M12 7.38086C12.497 7.38086 12.9004 7.7842 12.9004 8.28125V13.2812C12.9004 13.7783 12.497 14.1816 12 14.1816C11.503 14.1816 11.0996 13.7783 11.0996 13.2812V8.28125C11.0996 7.7842 11.503 7.38086 12 7.38086Z" fill="#12B1A5" stroke="#12B1A5" stroke-width="0.3"/>
<path d="M12 15.1309C12.6351 15.1309 13.1504 15.6461 13.1504 16.2812C13.1504 16.9164 12.6351 17.4316 12 17.4316C11.3649 17.4316 10.8496 16.9164 10.8496 16.2812C10.8496 15.6461 11.3649 15.1309 12 15.1309Z" fill="#12B1A5" stroke="#12B1A5" stroke-width="0.3"/>
<path d="M12 2.38086C13.5668 2.38086 14.7407 3.29014 15.8232 4.66504C16.8863 6.01526 18.0096 8.00827 19.4365 10.5381L19.8721 11.3105C21.0511 13.4008 21.9919 15.0681 22.4873 16.4102C22.9944 17.784 23.1317 19.0764 22.332 20.2236C21.5591 21.3323 20.2771 21.7724 18.7188 21.9775C17.1652 22.182 15.0802 22.1816 12.4248 22.1816H11.5752C8.91984 22.1816 6.83491 22.182 5.28125 21.9775C3.72287 21.7724 2.44086 21.3323 1.66797 20.2236C0.868262 19.0764 1.00565 17.784 1.5127 16.4102C2.00806 15.0681 2.94893 13.4009 4.12793 11.3105L4.5625 10.5381C5.98942 8.00806 7.1137 6.01532 8.17676 4.66504C9.25922 3.29014 10.4331 2.38086 12 2.38086ZM12 4.18164C11.2558 4.18164 10.5448 4.56651 9.59082 5.77832C8.62575 7.00413 7.57029 8.86993 6.0957 11.4844L5.73242 12.1299C4.50343 14.3089 3.63931 15.8461 3.20117 17.0332C2.7702 18.2009 2.84828 18.7693 3.14453 19.1943C3.46763 19.6578 4.08984 20.0045 5.5166 20.1924C6.93641 20.3792 8.89878 20.3809 11.6367 20.3809H12.3633C15.1013 20.3809 17.0636 20.3792 18.4834 20.1924C19.9101 20.0045 20.5323 19.6578 20.8555 19.1943C21.1517 18.7693 21.2299 18.2009 20.7988 17.0332C20.3607 15.8461 19.4965 14.3089 18.2676 12.1299L17.9043 11.4844C16.4297 8.86991 15.3742 7.00414 14.4092 5.77832C13.4551 4.5665 12.7442 4.18164 12 4.18164Z" fill="#12B1A5" stroke="#12B1A5" stroke-width="0.3"/>
</svg>
